<svg width="101" height="64" viewBox="0 0 101 64" fill="none" xmlns="http://www.w3.org/2000/svg">
<rect x="0.5" y="0.5" width="100" height="63" rx="7.5" fill="#252836"/>
<rect x="0.5" y="0.5" width="100" height="63" rx="7.5" stroke="#ABBBC2"/>
<path fill-rule="evenodd" clip-rule="evenodd" d="M39.75 19C39.75 16.3766 41.8766 14.25 44.5 14.25H56.5C59.1234 14.25 61.25 16.3766 61.25 19V25C61.25 27.6234 59.1234 29.75 56.5 29.75H44.5C41.8766 29.75 39.75 27.6234 39.75 25V19ZM41.337 18.25H59.663C59.3245 16.8167 58.0368 15.75 56.5 15.75H44.5C42.9632 15.75 41.6755 16.8167 41.337 18.25ZM59.75 19.75H41.25V25C41.25 26.7949 42.7051 28.25 44.5 28.25H56.5C58.2949 28.25 59.75 26.7949 59.75 25V19.75ZM51.75 25C51.75 24.5858 52.0858 24.25 52.5 24.25H56.5C56.9142 24.25 57.25 24.5858 57.25 25C57.25 25.4142 56.9142 25.75 56.5 25.75H52.5C52.0858 25.75 51.75 25.4142 51.75 25Z" fill="white"/>
<path d="M20.298 51.126C19.626 51.126 19.0287 50.9953 18.506 50.734C17.9927 50.4633 17.5913 50.0853 17.302 49.6C17.022 49.1053 16.882 48.5407 16.882 47.906V44.28C16.882 43.6453 17.022 43.09 17.302 42.614C17.5913 42.1287 17.9927 41.7553 18.506 41.494C19.0287 41.2233 19.626 41.088 20.298 41.088C20.97 41.088 21.5627 41.2187 22.076 41.48C22.5893 41.732 22.986 42.0913 23.266 42.558C23.5553 43.0247 23.7 43.566 23.7 44.182V44.196C23.7 44.2427 23.686 44.28 23.658 44.308C23.63 44.336 23.5973 44.35 23.56 44.35L22.496 44.406C22.4027 44.406 22.356 44.364 22.356 44.28V44.238C22.356 43.6407 22.1693 43.16 21.796 42.796C21.4227 42.432 20.9233 42.25 20.298 42.25C19.6727 42.25 19.1687 42.432 18.786 42.796C18.4127 43.16 18.226 43.6407 18.226 44.238V47.962C18.226 48.5593 18.4127 49.04 18.786 49.404C19.1687 49.768 19.6727 49.95 20.298 49.95C20.9233 49.95 21.4227 49.768 21.796 49.404C22.1693 49.04 22.356 48.5593 22.356 47.962V47.934C22.356 47.85 22.4027 47.808 22.496 47.808L23.56 47.864C23.6533 47.864 23.7 47.9107 23.7 48.004C23.7 48.62 23.5553 49.166 23.266 49.642C22.986 50.1087 22.5893 50.4727 22.076 50.734C21.5627 50.9953 20.97 51.126 20.298 51.126ZM28.6059 43.804C28.9046 43.804 29.1752 43.8647 29.4179 43.986C29.4832 44.014 29.5066 44.07 29.4879 44.154L29.2639 45.204C29.2546 45.288 29.1986 45.316 29.0959 45.288C28.9372 45.2227 28.7506 45.19 28.5359 45.19L28.3399 45.204C27.9012 45.2227 27.5372 45.3767 27.2479 45.666C26.9679 45.946 26.8279 46.3147 26.8279 46.772V50.86C26.8279 50.9533 26.7812 51 26.6879 51H25.6239C25.5306 51 25.4839 50.9533 25.4839 50.86V44.014C25.4839 43.9207 25.5306 43.874 25.6239 43.874H26.6879C26.7812 43.874 26.8279 43.9207 26.8279 44.014V44.756C26.8279 44.784 26.8326 44.8027 26.8419 44.812C26.8606 44.812 26.8746 44.8027 26.8839 44.784C27.3039 44.1307 27.8779 43.804 28.6059 43.804ZM36.3378 46.548C36.3752 46.9307 36.3892 47.36 36.3798 47.836C36.3798 47.9293 36.3332 47.976 36.2398 47.976H31.7738C31.7365 47.976 31.7178 47.9947 31.7178 48.032C31.7178 48.3493 31.7458 48.592 31.8018 48.76C31.9045 49.1333 32.1098 49.4273 32.4178 49.642C32.7352 49.8473 33.1318 49.95 33.6078 49.95C34.2985 49.95 34.8305 49.6653 35.2038 49.096C35.2505 49.0027 35.3112 48.9887 35.3858 49.054L36.1838 49.586C36.2492 49.642 36.2632 49.7027 36.2258 49.768C35.9645 50.188 35.5912 50.5193 35.1058 50.762C34.6298 51.0047 34.0885 51.126 33.4818 51.126C32.8005 51.126 32.2265 50.9767 31.7598 50.678C31.2932 50.3793 30.9432 49.9547 30.7098 49.404C30.4858 48.8533 30.3738 48.186 30.3738 47.402C30.3738 46.7207 30.4252 46.2027 30.5278 45.848C30.6958 45.204 31.0318 44.6953 31.5358 44.322C32.0398 43.9487 32.6512 43.762 33.3698 43.762C34.3125 43.762 35.0172 44 35.4838 44.476C35.9505 44.9427 36.2352 45.6333 36.3378 46.548ZM33.3698 44.924C32.9685 44.924 32.6372 45.0267 32.3758 45.232C32.1145 45.428 31.9372 45.694 31.8438 46.03C31.7785 46.2353 31.7365 46.4967 31.7178 46.814C31.7178 46.8513 31.7365 46.87 31.7738 46.87H34.9798C35.0172 46.87 35.0358 46.8513 35.0358 46.814C35.0172 46.506 34.9892 46.2773 34.9518 46.128C34.8585 45.764 34.6718 45.4747 34.3918 45.26C34.1212 45.036 33.7805 44.924 33.3698 44.924ZM42.4997 41.34C42.4997 41.2467 42.5464 41.2 42.6397 41.2H43.7037C43.797 41.2 43.8437 41.2467 43.8437 41.34V50.86C43.8437 50.9533 43.797 51 43.7037 51H42.6397C42.5464 51 42.4997 50.9533 42.4997 50.86V50.398C42.4997 50.3793 42.4904 50.3653 42.4717 50.356C42.4624 50.3467 42.4484 50.3513 42.4297 50.37C42.2244 50.6033 41.9817 50.7853 41.7017 50.916C41.4217 51.0467 41.1184 51.112 40.7917 51.112C40.1197 51.112 39.5597 50.9487 39.1117 50.622C38.673 50.286 38.351 49.8147 38.1457 49.208C37.9684 48.7133 37.8797 48.116 37.8797 47.416C37.8797 46.7627 37.9544 46.198 38.1037 45.722C38.2997 45.106 38.6217 44.6253 39.0697 44.28C39.5177 43.9347 40.0917 43.762 40.7917 43.762C41.109 43.762 41.4077 43.8273 41.6877 43.958C41.977 44.0793 42.2244 44.2567 42.4297 44.49C42.4484 44.5087 42.4624 44.5133 42.4717 44.504C42.4904 44.4947 42.4997 44.4807 42.4997 44.462V41.34ZM42.1497 49.194C42.3644 48.802 42.4717 48.214 42.4717 47.43C42.4717 46.646 42.355 46.0487 42.1217 45.638C41.851 45.162 41.4544 44.924 40.9317 44.924C40.3717 44.924 39.9564 45.148 39.6857 45.596C39.387 46.0627 39.2377 46.6787 39.2377 47.444C39.2377 48.1627 39.3544 48.7413 39.5877 49.18C39.8584 49.6933 40.3017 49.95 40.9177 49.95C41.459 49.95 41.8697 49.698 42.1497 49.194ZM46.626 42.754C46.3647 42.754 46.15 42.67 45.982 42.502C45.814 42.334 45.73 42.1193 45.73 41.858C45.73 41.5967 45.814 41.382 45.982 41.214C46.15 41.046 46.3647 40.962 46.626 40.962C46.8873 40.962 47.102 41.046 47.27 41.214C47.438 41.382 47.522 41.5967 47.522 41.858C47.522 42.1193 47.438 42.334 47.27 42.502C47.102 42.67 46.8873 42.754 46.626 42.754ZM46.066 50.986C45.9727 50.986 45.926 50.9393 45.926 50.846V44.014C45.926 43.9207 45.9727 43.874 46.066 43.874H47.13C47.2233 43.874 47.27 43.9207 47.27 44.014V50.846C47.27 50.9393 47.2233 50.986 47.13 50.986H46.066ZM52.8963 44.84C52.8963 44.9333 52.8497 44.98 52.7563 44.98H51.2443C51.207 44.98 51.1883 44.9987 51.1883 45.036V48.746C51.1883 49.138 51.277 49.4227 51.4543 49.6C51.6317 49.768 51.907 49.852 52.2803 49.852H52.6863C52.7797 49.852 52.8263 49.8987 52.8263 49.992V50.86C52.8263 50.9533 52.7797 51 52.6863 51C52.3877 51.0187 52.173 51.028 52.0423 51.028C51.333 51.028 50.7963 50.902 50.4323 50.65C50.0777 50.3887 49.9003 49.9127 49.9003 49.222V45.036C49.9003 44.9987 49.8817 44.98 49.8443 44.98H48.9903C48.897 44.98 48.8503 44.9333 48.8503 44.84V44.014C48.8503 43.9207 48.897 43.874 48.9903 43.874H49.8443C49.8817 43.874 49.9003 43.8553 49.9003 43.818V42.166C49.9003 42.0727 49.947 42.026 50.0403 42.026H51.0483C51.1417 42.026 51.1883 42.0727 51.1883 42.166V43.818C51.1883 43.8553 51.207 43.874 51.2443 43.874H52.7563C52.8497 43.874 52.8963 43.9207 52.8963 44.014V44.84ZM60.671 51.126C59.999 51.126 59.4017 50.9953 58.879 50.734C58.3657 50.4633 57.9644 50.0853 57.675 49.6C57.395 49.1053 57.255 48.5407 57.255 47.906V44.28C57.255 43.6453 57.395 43.09 57.675 42.614C57.9644 42.1287 58.3657 41.7553 58.879 41.494C59.4017 41.2233 59.999 41.088 60.671 41.088C61.343 41.088 61.9357 41.2187 62.449 41.48C62.9624 41.732 63.359 42.0913 63.639 42.558C63.9284 43.0247 64.073 43.566 64.073 44.182V44.196C64.073 44.2427 64.059 44.28 64.031 44.308C64.003 44.336 63.9704 44.35 63.933 44.35L62.869 44.406C62.7757 44.406 62.729 44.364 62.729 44.28V44.238C62.729 43.6407 62.5424 43.16 62.169 42.796C61.7957 42.432 61.2964 42.25 60.671 42.25C60.0457 42.25 59.5417 42.432 59.159 42.796C58.7857 43.16 58.599 43.6407 58.599 44.238V47.962C58.599 48.5593 58.7857 49.04 59.159 49.404C59.5417 49.768 60.0457 49.95 60.671 49.95C61.2964 49.95 61.7957 49.768 62.169 49.404C62.5424 49.04 62.729 48.5593 62.729 47.962V47.934C62.729 47.85 62.7757 47.808 62.869 47.808L63.933 47.864C64.0264 47.864 64.073 47.9107 64.073 48.004C64.073 48.62 63.9284 49.166 63.639 49.642C63.359 50.1087 62.9624 50.4727 62.449 50.734C61.9357 50.9953 61.343 51.126 60.671 51.126ZM68.3789 43.762C68.9483 43.762 69.4429 43.8647 69.8629 44.07C70.2923 44.266 70.6189 44.546 70.8429 44.91C71.0763 45.2647 71.1929 45.6707 71.1929 46.128V50.86C71.1929 50.9533 71.1463 51 71.0529 51H69.9889C69.8956 51 69.8489 50.9533 69.8489 50.86V50.356C69.8489 50.3093 69.8256 50.3 69.7789 50.328C69.5363 50.58 69.2376 50.776 68.8829 50.916C68.5376 51.0467 68.1503 51.112 67.7209 51.112C67.0303 51.112 66.4563 50.9393 65.9989 50.594C65.5509 50.2393 65.3269 49.7073 65.3269 48.998C65.3269 48.27 65.5789 47.7007 66.0829 47.29C66.5963 46.87 67.3103 46.66 68.2249 46.66H69.7929C69.8303 46.66 69.8489 46.6413 69.8489 46.604V46.226C69.8489 45.8153 69.7276 45.498 69.4849 45.274C69.2516 45.0407 68.8923 44.924 68.4069 44.924C68.0149 44.924 67.6929 45.0033 67.4409 45.162C67.1983 45.3113 67.0489 45.5167 66.9929 45.778C66.9649 45.8713 66.9089 45.9133 66.8249 45.904L65.6909 45.75C65.5976 45.7313 65.5556 45.694 65.5649 45.638C65.6396 45.0873 65.9336 44.6393 66.4469 44.294C66.9603 43.9393 67.6043 43.762 68.3789 43.762ZM68.0149 49.978C68.5096 49.978 68.9389 49.8473 69.3029 49.586C69.6669 49.3247 69.8489 48.9933 69.8489 48.592V47.766C69.8489 47.7287 69.8303 47.71 69.7929 47.71H68.4769C67.9263 47.71 67.4876 47.8173 67.1609 48.032C66.8343 48.2467 66.6709 48.5453 66.6709 48.928C66.6709 49.2733 66.7923 49.5347 67.0349 49.712C67.2869 49.8893 67.6136 49.978 68.0149 49.978ZM76.1293 43.804C76.428 43.804 76.6987 43.8647 76.9413 43.986C77.0067 44.014 77.03 44.07 77.0113 44.154L76.7873 45.204C76.778 45.288 76.722 45.316 76.6193 45.288C76.4607 45.2227 76.274 45.19 76.0593 45.19L75.8633 45.204C75.4247 45.2227 75.0607 45.3767 74.7713 45.666C74.4913 45.946 74.3513 46.3147 74.3513 46.772V50.86C74.3513 50.9533 74.3047 51 74.2113 51H73.1473C73.054 51 73.0073 50.9533 73.0073 50.86V44.014C73.0073 43.9207 73.054 43.874 73.1473 43.874H74.2113C74.3047 43.874 74.3513 43.9207 74.3513 44.014V44.756C74.3513 44.784 74.356 44.8027 74.3653 44.812C74.384 44.812 74.398 44.8027 74.4073 44.784C74.8273 44.1307 75.4013 43.804 76.1293 43.804ZM82.5173 41.34C82.5173 41.2467 82.5639 41.2 82.6573 41.2H83.7213C83.8146 41.2 83.8613 41.2467 83.8613 41.34V50.86C83.8613 50.9533 83.8146 51 83.7213 51H82.6573C82.5639 51 82.5173 50.9533 82.5173 50.86V50.398C82.5173 50.3793 82.5079 50.3653 82.4893 50.356C82.4799 50.3467 82.4659 50.3513 82.4473 50.37C82.2419 50.6033 81.9993 50.7853 81.7193 50.916C81.4393 51.0467 81.1359 51.112 80.8093 51.112C80.1373 51.112 79.5773 50.9487 79.1293 50.622C78.6906 50.286 78.3686 49.8147 78.1633 49.208C77.9859 48.7133 77.8973 48.116 77.8973 47.416C77.8973 46.7627 77.9719 46.198 78.1213 45.722C78.3173 45.106 78.6393 44.6253 79.0873 44.28C79.5353 43.9347 80.1093 43.762 80.8093 43.762C81.1266 43.762 81.4253 43.8273 81.7053 43.958C81.9946 44.0793 82.2419 44.2567 82.4473 44.49C82.4659 44.5087 82.4799 44.5133 82.4893 44.504C82.5079 44.4947 82.5173 44.4807 82.5173 44.462V41.34ZM82.1673 49.194C82.3819 48.802 82.4893 48.214 82.4893 47.43C82.4893 46.646 82.3726 46.0487 82.1393 45.638C81.8686 45.162 81.4719 44.924 80.9493 44.924C80.3893 44.924 79.9739 45.148 79.7033 45.596C79.4046 46.0627 79.2553 46.6787 79.2553 47.444C79.2553 48.1627 79.3719 48.7413 79.6053 49.18C79.8759 49.6933 80.3193 49.95 80.9353 49.95C81.4766 49.95 81.8873 49.698 82.1673 49.194Z" fill="white"/>
<path fill-rule="evenodd" clip-rule="evenodd" d="M89.8635 12.4036L86.8182 16.4036C86.6928 16.5683 86.4988 16.6656 86.2922 16.667H86.2875C86.0828 16.667 85.8895 16.5723 85.7628 16.411L84.1415 14.3396C83.9148 14.0503 83.9655 13.631 84.2555 13.4043C84.5448 13.177 84.9648 13.2276 85.1915 13.5183L86.2802 14.909L88.8028 11.5963C89.0255 11.3036 89.4435 11.2463 89.7375 11.4696C90.0302 11.693 90.0868 12.111 89.8635 12.4036ZM87.0002 7.33362C83.3182 7.33362 80.3335 10.3183 80.3335 14.0003C80.3335 17.6816 83.3182 20.667 87.0002 20.667C90.6822 20.667 93.6668 17.6816 93.6668 14.0003C93.6668 10.3183 90.6822 7.33362 87.0002 7.33362Z" fill="#EA7C69"/>
<mask id="mask0_201_1302" style="mask-type:luminance" maskUnits="userSpaceOnUse" x="80" y="7" width="14" height="14">
<path fill-rule="evenodd" clip-rule="evenodd" d="M89.8635 12.4036L86.8182 16.4036C86.6928 16.5683 86.4988 16.6656 86.2922 16.667H86.2875C86.0828 16.667 85.8895 16.5723 85.7628 16.411L84.1415 14.3396C83.9148 14.0503 83.9655 13.631 84.2555 13.4043C84.5448 13.177 84.9648 13.2276 85.1915 13.5183L86.2802 14.909L88.8028 11.5963C89.0255 11.3036 89.4435 11.2463 89.7375 11.4696C90.0302 11.693 90.0868 12.111 89.8635 12.4036ZM87.0002 7.33362C83.3182 7.33362 80.3335 10.3183 80.3335 14.0003C80.3335 17.6816 83.3182 20.667 87.0002 20.667C90.6822 20.667 93.6668 17.6816 93.6668 14.0003C93.6668 10.3183 90.6822 7.33362 87.0002 7.33362Z" fill="white"/>
</mask>
<g mask="url(#mask0_201_1302)">
<rect x="79" y="6" width="16" height="16" fill="#EA7C69"/>
</g>
</svg>
